<svg width="347" height="60" fill="none" xmlns="http://www.w3.org/2000/svg"><g clip-path="url(#clip0)"><path d="M73.952 33.57l-1.039-.43c-2.937-1.21-5.471-2.24-5.471-4.684 0-1.845 1.442-3.036 3.671-3.036 2.687 0 5.114 1.791 7.675 5.597v.063l.699-.188-.6-6.125v-.063h-.063a21.824 21.824 0 00-6.323-.94c-6.179 0-9.725 2.686-9.725 7.424 0 5.167 3.94 6.904 7.406 8.444l.314.144c3.26 1.414 5.373 2.534 5.373 5.005 0 1.04-.385 3.44-3.977 3.44-3.232 0-5.946-2.168-8.793-7.022l-.045-.071-.699.25.6 7.004v.035h.063a23.284 23.284 0 007.934 1.433c6.269 0 10.075-2.92 10.075-7.809 0-4.89-3.466-6.922-7.075-8.471zm32.472 5.785V24.48h-8.803v.296c1.495 1.334 2.131 3 2.131 5.57v12.08c-1.003 1.997-2.436 2.965-4.37 2.965-2.463 0-3.824-1.621-3.824-4.559V24.48h-8.695v.287c1.083 1.074 2.077 2.498 2.077 5.57v11.086c0 5.284 2.535 8.445 6.788 8.445 3.359 0 6.08-1.88 8.293-5.74v5.669l8.758-1.944h.081v-.233c-1.729-1.513-2.436-2.668-2.436-8.265zm21.6-15.618a10.397 10.397 0 00-8.337 4.12h-.153v-4.398l-8.955 2.812v.215c1.791 1.98 2.472 4.12 2.472 7.397V50.45c0 4.317-.305 6.708-1.218 9.448v.278h9.045v-.278c-.896-2.525-1.174-4.818-1.174-9.448v-1.468c1.663.621 3.428.925 5.203.895 4.12 0 7.505-1.37 9.789-3.958a14.092 14.092 0 003.223-9.546c.027-7.559-3.958-12.636-9.895-12.636zm3.045 13.934c0 6.475-2.293 10.505-5.991 10.505-3.941 0-5.374-4.183-5.374-8.06V29.61a6.708 6.708 0 014.836-1.79c4.326 0 6.529 3.295 6.529 9.85zm26.364-13.934a10.431 10.431 0 00-8.346 4.12h-.144v-4.398l-8.955 2.812v.215c1.791 1.98 2.481 4.12 2.481 7.397V50.45c0 4.317-.314 6.708-1.227 9.448v.278h9.116v-.278c-.895-2.525-1.173-4.818-1.173-9.448v-1.468c1.66.62 3.422.924 5.194.895 4.119 0 7.505-1.37 9.797-3.958a14.15 14.15 0 003.197-9.555c0-7.55-4.003-12.627-9.94-12.627zm3.036 13.934c0 6.475-2.293 10.505-5.982 10.505-3.941 0-5.374-4.183-5.374-8.06V29.61a6.714 6.714 0 014.827-1.79c4.335 0 6.529 3.295 6.529 9.85zm17.883 3.699V9.91l-9.071 2.839h-.072v.26c1.791 1.934 2.525 4.119 2.525 7.298v21.116c0 3.851-.465 5.714-1.218 7.469v.242h9.045v-.242c-.743-1.755-1.209-3.627-1.209-7.522zm20.141-16.603c.976 1.128 1.898 3.985.474 7.262l-3.68 8.955-3.86-9.582c-1.236-3.062-.717-5.641-.054-6.627v-.304h-10.567v.287c1.218 1.271 2.006 2.803 3.582 6.644l7.406 18.233v.108c-1.737 4.209-6.376 4.558-8.955 4.397h-.108l.099 5.901v.126h.116c4.147-.824 7.164-1.962 10.585-10.03l7.657-18.502c1.496-3.465 2.4-4.934 4.2-6.841v-.287h-6.842l-.053.26zm30.34 20.758a5.927 5.927 0 01-3.143.895c-2.212 0-3.341-1.173-3.341-3.483V26.352h6.484V24.48h-6.484v-5.794h-.671l-8.768 6.645h-.044v.985h2.803v16.916c0 4.28 2.283 6.636 6.438 6.636a8.277 8.277 0 007.254-3.779v-.063l-.448-.573-.08.072zm14.498-21.788c-7.244 0-13.433 5.982-13.433 13.065a12.604 12.604 0 003.744 9.018 13.774 13.774 0 009.698 4.048c7.317 0 13.585-5.982 13.585-13.092s-6.268-13.04-13.594-13.04zm6.43 13.039c0 7.02-2.445 11.39-6.376 11.39-3.107 0-6.43-2.99-6.43-11.39 0-6.914 2.508-11.383 6.376-11.383 3.869 0 6.43 4.496 6.43 11.383zm34.594 1.352V9.91l-9.071 2.892h-.072v.215c1.791 1.872 2.472 3.994 2.472 7.344v4.03a15.542 15.542 0 00-4.702-.699 12.978 12.978 0 00-10.101 4.245 14.99 14.99 0 00-3.457 9.949c0 7.164 3.967 11.937 9.851 11.937a9.848 9.848 0 008.588-4.988v4.917l8.955-1.944h.08v-.197c-1.817-1.773-2.543-3.116-2.543-9.483zm-6.645-7.558v12.635a6.558 6.558 0 01-5.194 2.535c-3.922 0-6.08-3.457-6.08-9.717 0-6.573 2.4-10.656 6.268-10.656 1.523 0 4.2.662 5.006 5.203zm35.777 14.704l-.565-.51-.071.071a3.276 3.276 0 01-2.338.994c-1.298 0-1.952-.77-1.952-2.301V30.81c0-4.558-2.686-7.074-7.621-7.074a14.03 14.03 0 00-11.024 5.292l-.053.072.555.672h.072a13.816 13.816 0 016.725-1.791c3.376 0 4.755 1.36 4.755 4.701v2.866c-4.916.895-13.057 3.376-13.057 9.313 0 3.072 2.275 5.06 5.794 5.06a9.774 9.774 0 007.451-3.69c.466 2.257 2.293 3.582 4.926 3.582 3.582 0 5.453-2.409 6.376-4.477l.027-.063zM301.97 37.08v7.63a5.606 5.606 0 01-3.582 1.218c-2.14 0-3.475-1.182-3.475-3.08 0-2.562 2.571-4.657 7.057-5.768z" fill="#201747"/><path d="M328.773 24.48v.287c.967 1.128 1.899 3.985.475 7.262l-3.69 8.955-3.851-9.582c-1.235-3.062-.716-5.641-.062-6.626v-.278h-10.567v.287c1.164 1.271 1.952 2.767 3.51 6.644l7.397 18.233v.108c-1.728 4.209-6.367 4.558-8.955 4.397h-.117l.099 5.901v.126h.116c4.147-.824 7.165-1.962 10.585-10.03l7.657-18.502c1.487-3.465 2.391-4.934 4.2-6.842v-.286l-6.797-.054zm13.505-5.857a4.425 4.425 0 11-4.29 4.415 4.362 4.362 0 014.29-4.415zm0 8.176a3.763 3.763 0 003.888-4.378 3.759 3.759 0 00-6.822-1.49 3.76 3.76 0 00-.649 2.107 3.66 3.66 0 001.004 2.63 3.638 3.638 0 002.579 1.131zm-1.433-6.143h1.692a1.354 1.354 0 011.424 1.415 1.237 1.237 0 01-.895 1.245c.062.084.116.174.161.268l.895 1.792h-.752l-.949-1.917h-.896v1.944h-.68v-4.747zm1.567 2.284a.799.799 0 00.842-.896.786.786 0 00-.226-.616.78.78 0 00-.616-.226h-.896v1.71l.896.028zM48.08 18.767a27.762 27.762 0 00-4.396-5.812l-33.421 33.42a27.68 27.68 0 01-4.478-5.892L0 46.286a27.384 27.384 0 004.388 5.794l.08.072a27.707 27.707 0 0043.613-33.385z" fill="#201747"/><path d="M49.478 7.17a27.761 27.761 0 00-39.215 39.206l33.42-33.421a27.762 27.762 0 014.398 5.812l5.803-5.803a27.69 27.69 0 00-4.406-5.794z" fill="#0075C9"/></g><defs><clipPath id="clip0"><path fill="#fff" d="M0 0h346.567v60H0z"/></clipPath></defs></svg>